<?xml version='1.0' encoding='UTF-8' standalone='no'?>
<!-- Created with Fritzing (http://www.fritzing.org/) -->
<svg xmlns="http://www.w3.org/2000/svg" width="2.75614in" height="2.37578in"  baseProfile="tiny" xmlns:svg="http://www.w3.org/2000/svg" viewBox="0 0 198.442 171.056" x="0in" y="0in" version="1.2">
 <g transform="matrix(-1, 0, 0, 1, 198.442, 0)">
  <g partID="854978110">
   <g id="board" >
    <rect id="boardoutline" stroke="black" width="197.866" height="170.48"  stroke-width="0.5" x="0.288" y="0.288" fill-opacity="0.5" fill="none"/>
   </g>
  </g>
  <g partID="854180600">
   <g transform="translate(60.1575,139.543)">
    <g transform="matrix(0,-1,1,0,0,0)">
     <g id="copper0" >
      <g id="copper1" >
       <circle cy="10.6336" id="connector1pad" stroke="black" cx="8.7876"  stroke-width="1.13384" r="1.7008" fill="none"/>
       <rect stroke="black" width="3.4016" height="3.4016"  stroke-width="1.13384" x="7.0868" y="8.9328" fill="none"/>
       <circle cy="3.5464" id="connector0pad" stroke="black" cx="8.7876"  stroke-width="1.13384" r="1.7008" fill="none"/>
      </g>
     </g>
    </g>
   </g>
  </g>
  <g partID="854184300">
   <g transform="translate(104.64,10.4889)">
    <g transform="matrix(0,1,-1,0,0,0)">
     <g id="copper0" >
      <circle cy="5.04" id="connector0pin" stroke="black" cx="5.04"  stroke-width="1.44" r="2.088" fill="none"/>
      <circle cy="12.24" id="connector1pin" stroke="black" cx="5.04"  stroke-width="1.44" r="2.088" fill="none"/>
      <circle cy="19.44" id="connector2pin" stroke="black" cx="5.04"  stroke-width="1.44" r="2.088" fill="none"/>
      <circle cy="26.64" id="connector3pin" stroke="black" cx="5.04"  stroke-width="1.44" r="2.088" fill="none"/>
      <circle cy="33.84" id="connector4pin" stroke="black" cx="5.04"  stroke-width="1.44" r="2.088" fill="none"/>
      <circle cy="41.04" id="connector5pin" stroke="black" cx="5.04"  stroke-width="1.44" r="2.088" fill="none"/>
      <circle cy="48.24" id="connector6pin" stroke="black" cx="5.04"  stroke-width="1.44" r="2.088" fill="none"/>
      <circle cy="55.44" id="connector7pin" stroke="black" cx="5.04"  stroke-width="1.44" r="2.088" fill="none"/>
     </g>
    </g>
   </g>
  </g>
  <g partID="854180950">
   <g transform="translate(84.6971,130.185)">
    <g transform="matrix(-0.438371,-0.898794,0.898794,-0.438371,0,0)">
     <g id="copper0" >
      <g id="copper1" >
       <!-- <rect width="55" x="10" y="15.5" fill="none" height="55" stroke="rgb(255, 191, 0)" stroke-width="20" />  -->
       <circle cy="3.096" stroke="black" id="connector0pin" cx="2.7"  stroke-width="1.44" r="1.98" fill="none"/>
       <circle cy="3.096" stroke="black" id="connector1pin" cx="31.5"  stroke-width="1.44" r="1.98" fill="none"/>
      </g>
     </g>
    </g>
   </g>
  </g>
  <g partID="854181360">
   <g transform="translate(179.511,139.396)">
    <g transform="matrix(-1,0,0,-1,0,0)">
     <g id="copper0" >
      <circle cy="5.04" id="connector0pin" stroke="black" cx="5.04"  stroke-width="1.44" r="2.088" fill="none"/>
      <circle cy="12.24" id="connector1pin" stroke="black" cx="5.04"  stroke-width="1.44" r="2.088" fill="none"/>
      <circle cy="19.44" id="connector2pin" stroke="black" cx="5.04"  stroke-width="1.44" r="2.088" fill="none"/>
      <circle cy="26.64" id="connector3pin" stroke="black" cx="5.04"  stroke-width="1.44" r="2.088" fill="none"/>
      <circle cy="33.84" id="connector4pin" stroke="black" cx="5.04"  stroke-width="1.44" r="2.088" fill="none"/>
      <circle cy="41.04" id="connector5pin" stroke="black" cx="5.04"  stroke-width="1.44" r="2.088" fill="none"/>
     </g>
    </g>
   </g>
  </g>
  <g partID="854405320">
   <g transform="translate(120.471,157.396)">
    <g transform="matrix(0,-1,1,0,0,0)">
     <g id="copper0" >
      <circle cy="5.04" id="connector0pin" stroke="black" cx="5.04"  stroke-width="1.44" r="2.088" fill="none"/>
      <circle cy="12.24" id="connector1pin" stroke="black" cx="5.04"  stroke-width="1.44" r="2.088" fill="none"/>
      <circle cy="19.44" id="connector2pin" stroke="black" cx="5.04"  stroke-width="1.44" r="2.088" fill="none"/>
      <circle cy="26.64" id="connector3pin" stroke="black" cx="5.04"  stroke-width="1.44" r="2.088" fill="none"/>
      <circle cy="33.84" id="connector4pin" stroke="black" cx="5.04"  stroke-width="1.44" r="2.088" fill="none"/>
      <circle cy="41.04" id="connector5pin" stroke="black" cx="5.04"  stroke-width="1.44" r="2.088" fill="none"/>
     </g>
    </g>
   </g>
  </g>
  <g partID="854183610">
   <g transform="translate(166.506,10.5156)">
    <g transform="matrix(0,1,-1,0,0,0)">
     <g id="copper0" >
      <circle cy="5.04" id="connector0pin" stroke="black" cx="5.04"  stroke-width="1.44" r="2.088" fill="none"/>
      <circle cy="12.24" id="connector1pin" stroke="black" cx="5.04"  stroke-width="1.44" r="2.088" fill="none"/>
      <circle cy="19.44" id="connector2pin" stroke="black" cx="5.04"  stroke-width="1.44" r="2.088" fill="none"/>
      <circle cy="26.64" id="connector3pin" stroke="black" cx="5.04"  stroke-width="1.44" r="2.088" fill="none"/>
      <circle cy="33.84" id="connector4pin" stroke="black" cx="5.04"  stroke-width="1.44" r="2.088" fill="none"/>
      <circle cy="41.04" id="connector5pin" stroke="black" cx="5.04"  stroke-width="1.44" r="2.088" fill="none"/>
      <circle cy="48.24" id="connector6pin" stroke="black" cx="5.04"  stroke-width="1.44" r="2.088" fill="none"/>
      <circle cy="55.44" id="connector7pin" stroke="black" cx="5.04"  stroke-width="1.44" r="2.088" fill="none"/>
     </g>
    </g>
   </g>
  </g>
  <g partID="854185530">
   <g transform="translate(116.151,147.316)">
    <g transform="matrix(0,1,-1,0,0,0)">
     <g id="copper0" >
      <circle cy="5.04" id="connector0pin" stroke="black" cx="5.04"  stroke-width="1.44" r="2.088" fill="none"/>
      <circle cy="12.24" id="connector1pin" stroke="black" cx="5.04"  stroke-width="1.44" r="2.088" fill="none"/>
      <circle cy="19.44" id="connector2pin" stroke="black" cx="5.04"  stroke-width="1.44" r="2.088" fill="none"/>
      <circle cy="26.64" id="connector3pin" stroke="black" cx="5.04"  stroke-width="1.44" r="2.088" fill="none"/>
      <circle cy="33.84" id="connector4pin" stroke="black" cx="5.04"  stroke-width="1.44" r="2.088" fill="none"/>
      <circle cy="41.04" id="connector5pin" stroke="black" cx="5.04"  stroke-width="1.44" r="2.088" fill="none"/>
      <circle cy="48.24" id="connector6pin" stroke="black" cx="5.04"  stroke-width="1.44" r="2.088" fill="none"/>
      <circle cy="55.44" id="connector7pin" stroke="black" cx="5.04"  stroke-width="1.44" r="2.088" fill="none"/>
     </g>
    </g>
   </g>
  </g>
  <g partID="854177090">
   <g transform="translate(56.7511,120.316)">
    <g transform="matrix(0,-1,1,0,0,0)">
     <g id="copper0" >
      <rect width="3.96" id="rect11" stroke="black" height="3.96"  x="1.98" y="5.58" stroke-width="1.44" fill="none"/>
      <circle cy="7.56" id="connector0pin" stroke="black" cx="3.96"  stroke-width="1.44" r="1.98" fill="none"/>
      <circle cy="7.56" id="connector1pin" stroke="black" cx="11.16"  stroke-width="1.44" r="1.98" fill="none"/>
     </g>
    </g>
   </g>
  </g>
  <g partID="854177190">
   <g transform="translate(31.5511,108.796)">
    <g id="copper0" >
     <rect width="3.96" id="rect11" stroke="black" height="3.96"  x="1.98" y="5.58" stroke-width="1.44" fill="none"/>
     <circle cy="7.56" id="connector0pin" stroke="black" cx="3.96"  stroke-width="1.44" r="1.98" fill="none"/>
     <circle cy="7.56" id="connector1pin" stroke="black" cx="11.16"  stroke-width="1.44" r="1.98" fill="none"/>
    </g>
   </g>
  </g>
  <g partID="255950">
   <g transform="translate(23.9911,109.156)">
    <g transform="matrix(0,-1,1,0,0,0)">
     <g id="copper0" >
      <rect stroke="black" width="4.464" height="4.464"  stroke-width="1.44" x="6.408" y="12.168" fill="none"/>
      <circle cy="14.4" id="connector0pad" stroke="black" cx="8.64"  stroke-width="1.44" r="2.232" fill="none"/>
      <circle cy="14.4" id="connector1pad" stroke="black" cx="15.84"  stroke-width="1.44" r="2.232" fill="none"/>
      <circle cy="14.4" id="connector2pad" stroke="black" cx="23.04"  stroke-width="1.44" r="2.232" fill="none"/>
     </g>
    </g>
   </g>
  </g>
  <g partID="854769460">
   <g transform="translate(151.623,109.411)">
    <g transform="matrix(-0.707107,0.707107,-0.707107,-0.707107,0,0)">
     <g id="copper0"  stroke-width="0">
      <rect width="3.96" stroke="black" height="3.96"  x="2.34" y="2.34" stroke-width="1.44" fill="none"/>
      <circle cy="4.32" stroke="black" id="connector0pin" cx="4.32"  stroke-width="1.44" r="1.98" fill="none"/>
      <circle cy="4.32" stroke="black" id="connector27pin" cx="25.92"  stroke-width="1.44" r="1.98" fill="none"/>
      <circle cy="11.52" stroke="black" id="connector1pin" cx="4.32"  stroke-width="1.44" r="1.98" fill="none"/>
      <circle cy="11.52" stroke="black" id="connector26pin" cx="25.92"  stroke-width="1.44" r="1.98" fill="none"/>
      <circle cy="18.72" stroke="black" id="connector2pin" cx="4.32"  stroke-width="1.44" r="1.98" fill="none"/>
      <circle cy="18.72" stroke="black" id="connector25pin" cx="25.92"  stroke-width="1.44" r="1.98" fill="none"/>
      <circle cy="25.92" stroke="black" id="connector3pin" cx="4.32"  stroke-width="1.44" r="1.98" fill="none"/>
      <circle cy="25.92" stroke="black" id="connector24pin" cx="25.92"  stroke-width="1.44" r="1.98" fill="none"/>
      <circle cy="33.12" stroke="black" id="connector4pin" cx="4.32"  stroke-width="1.44" r="1.98" fill="none"/>
      <circle cy="33.12" stroke="black" id="connector23pin" cx="25.92"  stroke-width="1.44" r="1.98" fill="none"/>
      <circle cy="40.32" stroke="black" id="connector5pin" cx="4.32"  stroke-width="1.44" r="1.98" fill="none"/>
      <circle cy="40.32" stroke="black" id="connector22pin" cx="25.92"  stroke-width="1.44" r="1.98" fill="none"/>
      <circle cy="47.52" stroke="black" id="connector6pin" cx="4.32"  stroke-width="1.44" r="1.98" fill="none"/>
      <circle cy="47.52" stroke="black" id="connector21pin" cx="25.92"  stroke-width="1.44" r="1.98" fill="none"/>
      <circle cy="54.72" stroke="black" id="connector7pin" cx="4.32"  stroke-width="1.44" r="1.98" fill="none"/>
      <circle cy="54.72" stroke="black" id="connector20pin" cx="25.92"  stroke-width="1.44" r="1.98" fill="none"/>
      <circle cy="61.92" stroke="black" id="connector8pin" cx="4.32"  stroke-width="1.44" r="1.98" fill="none"/>
      <circle cy="61.92" stroke="black" id="connector19pin" cx="25.92"  stroke-width="1.44" r="1.98" fill="none"/>
      <circle cy="69.12" stroke="black" id="connector9pin" cx="4.32"  stroke-width="1.44" r="1.98" fill="none"/>
      <circle cy="69.12" stroke="black" id="connector18pin" cx="25.92"  stroke-width="1.44" r="1.98" fill="none"/>
      <circle cy="76.32" stroke="black" id="connector10pin" cx="4.32"  stroke-width="1.44" r="1.98" fill="none"/>
      <circle cy="76.32" stroke="black" id="connector17pin" cx="25.92"  stroke-width="1.44" r="1.98" fill="none"/>
      <circle cy="83.52" stroke="black" id="connector11pin" cx="4.32"  stroke-width="1.44" r="1.98" fill="none"/>
      <circle cy="83.52" stroke="black" id="connector16pin" cx="25.92"  stroke-width="1.44" r="1.98" fill="none"/>
      <circle cy="90.72" stroke="black" id="connector12pin" cx="4.32"  stroke-width="1.44" r="1.98" fill="none"/>
      <circle cy="90.72" stroke="black" id="connector15pin" cx="25.92"  stroke-width="1.44" r="1.98" fill="none"/>
      <circle cy="97.92" stroke="black" id="connector13pin" cx="4.32"  stroke-width="1.44" r="1.98" fill="none"/>
      <circle cy="97.92" stroke="black" id="connector14pin" cx="25.92"  stroke-width="1.44" r="1.98" fill="none"/>
     </g>
    </g>
   </g>
  </g>
  <g partID="854177150">
   <g transform="translate(154.986,100.997)">
    <g transform="matrix(0.0174524,-0.999848,0.999848,0.0174524,0,0)">
     <g id="copper0" >
      <g id="copper1" >
       <!-- <rect width="55" x="10" y="15.5" fill="none" height="55" stroke="rgb(255, 191, 0)" stroke-width="20" />  -->
       <circle cy="3.096" stroke="black" id="connector0pin" cx="2.7"  stroke-width="1.44" r="1.98" fill="none"/>
       <circle cy="3.096" stroke="black" id="connector1pin" cx="31.5"  stroke-width="1.44" r="1.98" fill="none"/>
      </g>
     </g>
    </g>
   </g>
  </g>
  <g partID="854177110">
   <g transform="translate(188.837,62.8149)">
    <g transform="matrix(0,1,-1,0,0,0)">
     <g id="copper0" >
      <circle cy="15.6024" id="connector0pad" stroke="black" cx="20.8462"  stroke-width="1.44" r="1.98" fill="none"/>
      <circle cy="15.6024" id="connector1pad" stroke="black" cx="2.42064"  stroke-width="1.44" r="1.98" fill="none"/>
      <circle cy="2.84616" id="connector2pad" stroke="black" cx="20.8462"  stroke-width="1.44" r="1.98" fill="none"/>
      <circle cy="2.84616" id="connector3pad" stroke="black" cx="2.42064"  stroke-width="1.44" r="1.98" fill="none"/>
     </g>
    </g>
   </g>
  </g>
  <g partID="854177130">
   <g transform="translate(110.962,45.9469)">
    <g transform="matrix(0.374607,-0.927184,0.927184,0.374607,0,0)">
     <g id="copper0" >
      <g id="copper1" >
       <circle cy="2.88" id="connector0pin" stroke="black" cx="2.88"  stroke-width="1.44" r="1.8" fill="none"/>
       <circle cy="2.88" id="connector1pin" stroke="black" cx="17.28"  stroke-width="1.44" r="1.8" fill="none"/>
      </g>
     </g>
    </g>
   </g>
  </g>
  <g partID="854177170">
   <g transform="translate(129.362,35.8295)">
    <g transform="matrix(-0.438371,0.898794,-0.898794,-0.438371,0,0)">
     <g id="copper0" >
      <g id="copper1" >
       <circle cy="2.88" id="connector0pin" stroke="black" cx="2.88"  stroke-width="1.44" r="1.8" fill="none"/>
       <circle cy="2.88" id="connector1pin" stroke="black" cx="17.28"  stroke-width="1.44" r="1.8" fill="none"/>
      </g>
     </g>
    </g>
   </g>
  </g>
  <g partID="854177210">
   <g transform="translate(119.274,72.687)">
    <g transform="matrix(-0.743145,-0.669131,0.669131,-0.743145,0,0)">
     <g id="copper0" >
      <g id="copper1" >
       <circle cy="7.08448" id="connector1pin" stroke="black" cx="22.5479"  stroke-width="1.41732" r="1.84465" fill="none"/>
       <circle cy="7.08661" id="connector0pin" stroke="black" cx="8.64567"  stroke-width="1.41732" r="1.84252" fill="none"/>
      </g>
     </g>
    </g>
   </g>
  </g>
  <g partID="497200">
   <g transform="translate(6.35112,124.996)">
    <g id="copper0" >
     <circle cy="12.96" id="connector0pin" stroke="black" cx="39.24"  stroke-width="1.44" r="4.32" fill="none"/>
     <circle cy="12.96" id="connector1pin" stroke="black" cx="21.96"  stroke-width="1.44" r="4.32" fill="none"/>
     <circle cy="26.64" id="connector2pin" stroke="black" cx="30.6"  stroke-width="1.44" r="4.32" fill="none"/>
    </g>
   </g>
  </g>
  <g partID="855071980">
   <line stroke="black" y1="126.05" x1="131.783" stroke-width="1.728" stroke-linecap="round" y2="150.919" x2="159.888"/>
  </g>
  <g partID="855077520">
   <line stroke="black" y1="64.8443" x1="67.5117" stroke-width="1.728" stroke-linecap="round" y2="66.7156" x2="65.0711"/>
  </g>
  <g partID="855110820">
   <line stroke="black" y1="66.7156" x1="65.0711" stroke-width="1.728" stroke-linecap="round" y2="53.6889" x2="52.0445"/>
  </g>
  <g partID="855077470">
   <line stroke="black" y1="53.6889" x1="52.0445" stroke-width="1.728" stroke-linecap="round" y2="17.1655" x2="83.778"/>
  </g>
  <g partID="855077600">
   <line stroke="black" y1="70.1738" x1="72.817" stroke-width="1.728" stroke-linecap="round" y2="76.8089" x2="66.4978"/>
  </g>
  <g partID="855110850">
   <line stroke="black" y1="76.8089" x1="66.4978" stroke-width="1.728" stroke-linecap="round" y2="54.4889" x2="44.1778"/>
  </g>
  <g partID="855077550">
   <line stroke="black" y1="54.4889" x1="44.1778" stroke-width="1.728" stroke-linecap="round" y2="17.1661" x2="76.5787"/>
  </g>
  <g partID="855077650">
   <line stroke="black" y1="17.1616" x1="69.3735" stroke-width="1.728" stroke-linecap="round" y2="55.1556" x2="36.1775"/>
  </g>
  <g partID="855077630">
   <line stroke="black" y1="55.1556" x1="36.1775" stroke-width="1.728" stroke-linecap="round" y2="85.6532" x2="67.4488"/>
  </g>
  <g partID="855110880">
   <line stroke="black" y1="85.6532" x1="67.4488" stroke-width="1.728" stroke-linecap="round" y2="75.2299" x2="77.8722"/>
  </g>
  <g partID="855110910">
   <line stroke="black" y1="95.1556" x1="68.3111" stroke-width="1.728" stroke-linecap="round" y2="54.4222" x2="27.5778"/>
  </g>
  <g partID="855077760">
   <line stroke="black" y1="80.3292" x1="82.9716" stroke-width="1.728" stroke-linecap="round" y2="95.1556" x2="68.3111"/>
  </g>
  <g partID="855077710">
   <line stroke="black" y1="54.4222" x1="27.5778" stroke-width="1.728" stroke-linecap="round" y2="17.1195" x2="62.1267"/>
  </g>
  <g partID="855079620">
   <line stroke="black" y1="32.4162" x1="121.346" stroke-width="1.728" stroke-linecap="round" y2="35.7434" x2="124.27"/>
  </g>
  <g partID="855080320">
   <line stroke="black" y1="95.2334" x1="97.9489" stroke-width="1.728" stroke-linecap="round" y2="115.26" x2="66.0557"/>
  </g>
  <g partID="855081390">
   <line stroke="black" y1="118.398" x1="42.9834" stroke-width="1.728" stroke-linecap="round" y2="133.594" x2="45.0096"/>
  </g>
  <g partID="854919250">
   <line stroke="black" y1="107.758" x1="65.8248" stroke-width="1.728" stroke-linecap="round" y2="101.913" x2="72.1574"/>
  </g>
  <g partID="854919710">
   <line stroke="black" y1="114.368" x1="42.1691" stroke-width="1.728" stroke-linecap="round" y2="102.746" x2="38.9994"/>
  </g>
  <g partID="854920260">
   <line stroke="black" y1="107.787" x1="62.7715" stroke-width="1.728" stroke-linecap="round" y2="87.6516" x2="40.1191"/>
  </g>
  <g partID="854920320">
   <line stroke="black" y1="114.987" x1="62.7715" stroke-width="1.728" stroke-linecap="round" y2="94.8516" x2="40.1191"/>
  </g>
  <g partID="854751430">
   <line stroke="black" y1="50.9609" x1="108.542" stroke-width="1.728" stroke-linecap="round" y2="45.7704" x2="113.39"/>
  </g>
  <g partID="854751470">
   <line stroke="black" y1="59.7736" x1="117.851" stroke-width="1.728" stroke-linecap="round" y2="52.0136" x2="118.932"/>
  </g>
  <g partID="854751510">
   <line stroke="black" y1="62.6287" x1="115.786" stroke-width="1.728" stroke-linecap="round" y2="67.7498" x2="106.479"/>
  </g>
  <g partID="854751530">
   <line stroke="black" y1="54.0446" x1="106.109" stroke-width="1.728" stroke-linecap="round" y2="61.9841" x2="100.774"/>
  </g>
  <g partID="854751550">
   <line stroke="black" y1="17.3161" x1="124.201" stroke-width="1.728" stroke-linecap="round" y2="56.8269" x2="95.8046"/>
  </g>
  <g partID="854751570">
   <line stroke="black" y1="17.2819" x1="116.955" stroke-width="1.728" stroke-linecap="round" y2="51.7682" x2="90.7573"/>
  </g>
  <g partID="854751590">
   <line stroke="black" y1="17.2375" x1="109.698" stroke-width="1.728" stroke-linecap="round" y2="46.7192" x2="85.7198"/>
  </g>
  <g partID="854896500">
   <line stroke="black" y1="130.233" x1="72.653" stroke-width="1.728" stroke-linecap="round" y2="126.958" x2="84.3129"/>
  </g>
  <g partID="854933860">
   <line stroke="black" y1="118.414" x1="64.2243" stroke-width="1.728" stroke-linecap="round" y2="128.823" x2="63.7854"/>
  </g>
  <g partID="855012400">
   <line stroke="black" y1="133.556" x1="28.3111" stroke-width="1.728" stroke-linecap="round" y2="116.356" x2="28.3111"/>
  </g>
  <g partID="855108640">
   <line stroke="black" y1="116.356" x1="28.3111" stroke-width="1.728" stroke-linecap="round" y2="116.356" x2="33.4511"/>
  </g>
  <g partID="855014990">
   <line stroke="black" y1="17.6651" x1="160.966" stroke-width="1.728" stroke-linecap="round" y2="102.316" x2="140.898"/>
  </g>
  <g partID="855019970">
   <line stroke="black" y1="17.6701" x1="153.788" stroke-width="1.728" stroke-linecap="round" y2="97.2199" x2="135.786"/>
  </g>
  <g partID="855021950">
   <line stroke="black" y1="152.356" x1="101.743" stroke-width="1.728" stroke-linecap="round" y2="152.356" x2="98.8791"/>
  </g>
  <g partID="855091590">
   <line stroke="black" y1="136.516" x1="158.631" stroke-width="1.728" stroke-linecap="round" y2="128.259" x2="172.605"/>
  </g>
  <g partID="855091560">
   <line stroke="black" y1="107.716" x1="128.391" stroke-width="1.728" stroke-linecap="round" y2="136.516" x2="158.631"/>
  </g>
  <g partID="855091540">
   <line stroke="black" y1="100.824" x1="134.028" stroke-width="1.728" stroke-linecap="round" y2="107.716" x2="128.391"/>
  </g>
  <g partID="855091790">
   <line stroke="black" y1="109.156" x1="136.391" stroke-width="1.728" stroke-linecap="round" y2="130.756" x2="158.631"/>
  </g>
  <g partID="855091820">
   <line stroke="black" y1="130.756" x1="158.631" stroke-width="1.728" stroke-linecap="round" y2="121.177" x2="172.68"/>
  </g>
  <g partID="855091770">
   <line stroke="black" y1="105.902" x1="139.104" stroke-width="1.728" stroke-linecap="round" y2="109.156" x2="136.391"/>
  </g>
  <g partID="855097380">
   <line stroke="black" y1="92.6756" x1="106.791" stroke-width="1.728" stroke-linecap="round" y2="80.6371" x2="113.918"/>
  </g>
  <g partID="855097850">
   <line stroke="black" y1="141.636" x1="157.191" stroke-width="1.728" stroke-linecap="round" y2="92.6756" x2="106.791"/>
  </g>
  <g partID="855110960">
   <line stroke="black" y1="141.476" x1="170.951" stroke-width="1.728" stroke-linecap="round" y2="141.636" x2="157.191"/>
  </g>
  <g partID="855098830">
   <line stroke="black" y1="159.556" x1="170.951" stroke-width="1.728" stroke-linecap="round" y2="141.476" x2="170.951"/>
  </g>
  <g partID="855098360">
   <line stroke="black" y1="159.556" x1="89.5111" stroke-width="1.728" stroke-linecap="round" y2="159.556" x2="170.951"/>
  </g>
  <g partID="855096910">
   <line stroke="black" y1="154.524" x1="89.5111" stroke-width="1.728" stroke-linecap="round" y2="159.556" x2="89.5111"/>
  </g>
  <g partID="855105860">
   <line stroke="black" y1="92.2954" x1="100.615" stroke-width="1.728" stroke-linecap="round" y2="75.6157" x2="108.955"/>
  </g>
  <g partID="855106540">
   <line stroke="black" y1="39.0274" x1="125.337" stroke-width="1.728" stroke-linecap="round" y2="68.0356" x2="122.631"/>
  </g>
  <g partID="855106740">
   <line stroke="black" y1="68.0356" x1="122.631" stroke-width="1.728" stroke-linecap="round" y2="72.9281" x2="111.755"/>
  </g>
  <g partID="855106990">
   <line stroke="black" y1="17.6991" x1="139.542" stroke-width="1.728" stroke-linecap="round" y2="81.7956" x2="129.831"/>
  </g>
  <g partID="855107010">
   <line stroke="black" y1="81.7956" x1="129.831" stroke-width="1.728" stroke-linecap="round" y2="87.3161" x2="126.267"/>
  </g>
  <g partID="855107060">
   <line stroke="black" y1="83.8756" x1="134.151" stroke-width="1.728" stroke-linecap="round" y2="92.2129" x2="130.974"/>
  </g>
  <g partID="855107040">
   <line stroke="black" y1="17.6858" x1="146.664" stroke-width="1.728" stroke-linecap="round" y2="83.8756" x2="134.151"/>
  </g>
  <g partID="855107870">
   <line stroke="black" y1="140.836" x1="96.7111" stroke-width="1.728" stroke-linecap="round" y2="140.836" x2="63.7039"/>
  </g>
  <g partID="855107660">
   <line stroke="black" y1="140.836" x1="63.7039" stroke-width="1.728" stroke-linecap="round" y2="132.689" x2="63.7039"/>
  </g>
  <g partID="855107460">
   <line stroke="black" y1="150.188" x1="96.7111" stroke-width="1.728" stroke-linecap="round" y2="140.836" x2="96.7111"/>
  </g>
  <g partID="855108100">
   <line stroke="black" y1="17.2784" x1="98.3195" stroke-width="1.728" stroke-linecap="round" y2="41.5639" x2="80.5455"/>
  </g>
  <g partID="855108180">
   <line stroke="black" y1="52.9956" x1="59.2711" stroke-width="1.728" stroke-linecap="round" y2="56.9449" x2="62.7039"/>
  </g>
  <g partID="855108190">
   <line stroke="black" y1="17.1531" x1="90.9638" stroke-width="1.728" stroke-linecap="round" y2="52.9956" x2="59.2711"/>
  </g>
  <g partID="855110410">
   <line stroke="black" y1="118.811" x1="105.567" stroke-width="1.728" stroke-linecap="round" y2="110.868" x2="113.51"/>
  </g>
  <g partID="855110390">
   <line stroke="black" y1="150.841" x1="138.36" stroke-width="1.728" stroke-linecap="round" y2="118.811" x2="105.567"/>
  </g>
  <g partID="855110500">
   <line stroke="black" y1="121.476" x1="113.991" stroke-width="1.728" stroke-linecap="round" y2="116.057" x2="118.706"/>
  </g>
  <g partID="855110480">
   <line stroke="black" y1="150.877" x1="145.525" stroke-width="1.728" stroke-linecap="round" y2="121.476" x2="113.991"/>
  </g>
  <g partID="855110770">
   <line stroke="black" y1="150.913" x1="152.693" stroke-width="1.728" stroke-linecap="round" y2="123.556" x2="121.991"/>
  </g>
  <g partID="855110790">
   <line stroke="black" y1="123.556" x1="121.991" stroke-width="1.728" stroke-linecap="round" y2="121.205" x2="123.865"/>
  </g>
  <g partID="855113430">
   <line stroke="black" y1="85.4442" x1="88.0872" stroke-width="1.728" stroke-linecap="round" y2="99.0269" x2="75.095"/>
  </g>
  <g partID="855113730">
   <line stroke="black" y1="87.5901" x1="93.1457" stroke-width="1.728" stroke-linecap="round" y2="85.4122" x2="90.9678"/>
  </g>
  <g partID="855133550">
   <line stroke="black" y1="7.02224" x1="56.3999" stroke-width="1.728" stroke-linecap="round" y2="13.3609" x2="56.3999"/>
  </g>
  <g partID="855133840">
   <line stroke="black" y1="7.02224" x1="185.991" stroke-width="1.728" stroke-linecap="round" y2="7.02224" x2="56.3999"/>
  </g>
  <g partID="855133260">
   <line stroke="black" y1="63.1756" x1="185.991" stroke-width="1.728" stroke-linecap="round" y2="7.02224" x2="185.991"/>
  </g>
  <g partID="855148720">
   <line stroke="black" y1="76.0889" x1="163.644" stroke-width="1.728" stroke-linecap="round" y2="73.9556" x2="191.111"/>
  </g>
  <g partID="855136470">
   <line stroke="black" y1="73.9556" x1="191.111" stroke-width="1.728" stroke-linecap="round" y2="163.822" x2="191.111"/>
  </g>
  <g partID="855136600">
   <line stroke="black" y1="91.2889" x1="152.978" stroke-width="1.728" stroke-linecap="round" y2="76.0889" x2="163.644"/>
  </g>
  <g partID="855136080">
   <line stroke="black" y1="107.507" x1="146.299" stroke-width="1.728" stroke-linecap="round" y2="91.2889" x2="152.978"/>
  </g>
  <g partID="855136340">
   <line stroke="black" y1="163.822" x1="191.111" stroke-width="1.728" stroke-linecap="round" y2="164.622" x2="75.1111"/>
  </g>
  <g partID="855136210">
   <line stroke="black" y1="164.622" x1="75.1111" stroke-width="1.728" stroke-linecap="round" y2="154.524" x2="75.1111"/>
  </g>
  <g partID="855136830">
   <line stroke="black" y1="90.4889" x1="153.511" stroke-width="1.728" stroke-linecap="round" y2="107.514" x2="146.316"/>
  </g>
  <g partID="855136730">
   <line stroke="black" y1="84.335" x1="171.288" stroke-width="1.728" stroke-linecap="round" y2="90.4889" x2="153.511"/>
  </g>
  <g partID="855136940">
   <line stroke="black" y1="68.9712" x1="160.607" stroke-width="1.728" stroke-linecap="round" y2="65.8199" x2="171.259"/>
  </g>
  <g partID="855138300">
   <line stroke="black" y1="142.222" x1="37.6445" stroke-width="1.728" stroke-linecap="round" y2="150.222" x2="20.4445"/>
  </g>
  <g partID="855138720">
   <line stroke="black" y1="81.8222" x1="20.4445" stroke-width="1.728" stroke-linecap="round" y2="70.2222" x2="33.3778"/>
  </g>
  <g partID="855138090">
   <line stroke="black" y1="150.222" x1="20.4445" stroke-width="1.728" stroke-linecap="round" y2="81.8222" x2="20.4445"/>
  </g>
  <g partID="855138510">
   <line stroke="black" y1="151.689" x1="49.2445" stroke-width="1.728" stroke-linecap="round" y2="142.222" x2="37.6445"/>
  </g>
  <g partID="855137250">
   <line stroke="black" y1="99.0222" x1="64.4445" stroke-width="1.728" stroke-linecap="round" y2="107.096" x2="64.3382"/>
  </g>
  <g partID="855137040">
   <line stroke="black" y1="150.188" x1="89.5111" stroke-width="1.728" stroke-linecap="round" y2="145.156" x2="89.5111"/>
  </g>
  <g partID="855137880">
   <line stroke="black" y1="145.156" x1="55.6445" stroke-width="1.728" stroke-linecap="round" y2="151.689" x2="49.2445"/>
  </g>
  <g partID="855137460">
   <line stroke="black" y1="70.2222" x1="33.3778" stroke-width="1.728" stroke-linecap="round" y2="99.0222" x2="64.4445"/>
  </g>
  <g partID="855137670">
   <line stroke="black" y1="145.156" x1="89.5111" stroke-width="1.728" stroke-linecap="round" y2="145.156" x2="55.6445"/>
  </g>
  <g partID="855139840">
   <line stroke="black" y1="158.756" x1="12.4445" stroke-width="1.728" stroke-linecap="round" y2="82.4889" x2="13.2445"/>
  </g>
  <g partID="855139550">
   <line stroke="black" y1="82.4889" x1="13.2445" stroke-width="1.728" stroke-linecap="round" y2="52.8889" x2="21.2445"/>
  </g>
  <g partID="855140170">
   <line stroke="black" y1="158.756" x1="36.9511" stroke-width="1.728" stroke-linecap="round" y2="158.756" x2="12.4445"/>
  </g>
  <g partID="855138970">
   <line stroke="black" y1="156.036" x1="36.9511" stroke-width="1.728" stroke-linecap="round" y2="158.756" x2="36.9511"/>
  </g>
  <g partID="855139260">
   <line stroke="black" y1="52.8889" x1="21.2445" stroke-width="1.728" stroke-linecap="round" y2="17.1078" x2="54.9142"/>
  </g>
  <g partID="855141080">
   <line stroke="black" y1="116.356" x1="28.3111" stroke-width="1.728" stroke-linecap="round" y2="116.356" x2="33.4511"/>
  </g>
  <g partID="855140810">
   <line stroke="black" y1="93.3156" x1="28.3111" stroke-width="1.728" stroke-linecap="round" y2="116.356" x2="28.3111"/>
  </g>
  <g partID="855140540">
   <line stroke="black" y1="93.3156" x1="36.0791" stroke-width="1.728" stroke-linecap="round" y2="93.3156" x2="28.3111"/>
  </g>
  <g partID="855146200">
   <line stroke="black" y1="112.089" x1="160.711" stroke-width="1.728" stroke-linecap="round" y2="100.376" x2="158.509"/>
  </g>
  <g partID="855146020">
   <line stroke="black" y1="112.651" x1="172.306" stroke-width="1.728" stroke-linecap="round" y2="112.089" x2="160.711"/>
  </g>
  <g partID="855147070">
   <line stroke="black" y1="141.422" x1="183.911" stroke-width="1.728" stroke-linecap="round" y2="113.422" x2="183.911"/>
  </g>
  <g partID="855146900">
   <line stroke="black" y1="113.422" x1="183.911" stroke-width="1.728" stroke-linecap="round" y2="112.908" x2="176.634"/>
  </g>
  <g partID="855146560">
   <line stroke="black" y1="92.6222" x1="106.844" stroke-width="1.728" stroke-linecap="round" y2="141.422" x2="157.244"/>
  </g>
  <g partID="855146730">
   <line stroke="black" y1="141.422" x1="157.244" stroke-width="1.728" stroke-linecap="round" y2="141.422" x2="183.911"/>
  </g>
  <g partID="855146390">
   <line stroke="black" y1="80.6383" x1="113.92" stroke-width="1.728" stroke-linecap="round" y2="92.6222" x2="106.844"/>
  </g>
  <g partID="855148810">
   <line stroke="black" y1="96.6494" x1="175.809" stroke-width="1.728" stroke-linecap="round" y2="85.2823" x2="184.72"/>
  </g>
  <g partID="855149110">
   <line stroke="black" y1="100.524" x1="174.471" stroke-width="1.728" stroke-linecap="round" y2="103.388" x2="174.471"/>
  </g>
  <g partID="855149530">
   <line stroke="black" y1="37.8596" x1="131.271" stroke-width="1.728" stroke-linecap="round" y2="77.4756" x2="126.247"/>
  </g>
  <g partID="855149500">
   <line stroke="black" y1="77.4756" x1="126.247" stroke-width="1.728" stroke-linecap="round" y2="82.4659" x2="121.481"/>
  </g>
  <g partID="855149480">
   <line stroke="black" y1="17.7193" x1="132.531" stroke-width="1.728" stroke-linecap="round" y2="37.8596" x2="131.271"/>
  </g>
  <g partID="855149600">
   <line stroke="black" y1="118.5" x1="97.4471" stroke-width="1.728" stroke-linecap="round" y2="105.869" x2="108.518"/>
  </g>
  <g partID="855149580">
   <line stroke="black" y1="150.854" x1="131.147" stroke-width="1.728" stroke-linecap="round" y2="118.5" x2="97.4471"/>
  </g>
  <g partID="855149650">
   <line stroke="black" y1="150.869" x1="123.933" stroke-width="1.728" stroke-linecap="round" y2="117.092" x2="88.0711"/>
  </g>
  <g partID="855149670">
   <line stroke="black" y1="117.092" x1="88.0711" stroke-width="1.728" stroke-linecap="round" y2="100.733" x2="103.377"/>
  </g>
 </g>
</svg>
