<?xml version='1.0' encoding='UTF-8' standalone='no'?>
<!-- Created with Fritzing (http://www.fritzing.org/) -->
<svg xmlns="http://www.w3.org/2000/svg" width="2.75614in" height="2.37578in"  baseProfile="tiny" xmlns:svg="http://www.w3.org/2000/svg" viewBox="0 0 198.442 171.056" x="0in" y="0in" version="1.2">
 <g transform="matrix(-1, 0, 0, 1, 198.442, 0)">
  <g partID="854978112">
   <g id="silkscreen">
    <rect stroke="black" width="197.866" height="170.48" stroke-width="0.576" x="0.288" y="0.288" fill="none"/>
   </g>
  </g>
  <g partID="854978110">
   <g id="board">
    <rect id="boardoutline" stroke="black" width="197.866" height="170.48" stroke-width="0.5" x="0.288" y="0.288" fill-opacity="0.5" fill="none"/>
   </g>
  </g>
  <g partID="855082770">
   <g transform="translate(-7.48888,47.5342)">
    <g id="silkscreen">
     <text xmlns:xml="http://www.w3.org/XML/1998/namespace" id="label" font-size="2.69333" font-family="OCRA" x="40.3999" y="2.424" stroke-width="0" xml:space="preserve" text-anchor="middle" fill="black">github.com/esdrasedu/esdrasino</text>
    </g>
   </g>
  </g>
  <g partID="855082750">
   <g transform="translate(147.202,105.195)">
    <g transform="matrix(0.731354,-0.681998,0.681998,0.731354,0,0)">
     <g id="silkscreen">
      <text xmlns:xml="http://www.w3.org/XML/1998/namespace" id="label" font-size="4.16814" font-family="OCRA" x="2.08407" y="3.75132" stroke-width="0" xml:space="preserve" text-anchor="middle" fill="black">&#x2190;</text>
     </g>
    </g>
   </g>
  </g>
  <g partID="855082730">
   <g transform="translate(72.7397,149.649)">
    <g transform="matrix(0,-1,1,0,0,0)">
     <g id="silkscreen">
      <text xmlns:xml="http://www.w3.org/XML/1998/namespace" id="label" font-size="4.16813" font-family="OCRA" x="6.25219" y="3.75132" stroke-width="0" xml:space="preserve" fill="black" text-anchor="middle">RST</text>
     </g>
    </g>
   </g>
  </g>
  <g partID="855082710">
   <g transform="translate(87.1397,148.278)">
    <g transform="matrix(0,-1,1,0,0,0)">
     <g id="silkscreen">
      <text xmlns:xml="http://www.w3.org/XML/1998/namespace" id="label" font-size="4.16815" font-family="OCRA" x="4.16815" y="3.75132" stroke-width="0" xml:space="preserve" text-anchor="middle" fill="black">5V</text>
     </g>
    </g>
   </g>
  </g>
  <g partID="855082690">
   <g transform="translate(94.3397,148.978)">
    <g transform="matrix(0,-1,1,0,0,0)">
     <g id="silkscreen">
      <text xmlns:xml="http://www.w3.org/XML/1998/namespace" id="label" font-size="4.16813" font-family="OCRA" x="6.25219" y="3.75132" stroke-width="0" xml:space="preserve" text-anchor="middle" fill="black">GND</text>
     </g>
    </g>
   </g>
  </g>
  <g partID="855082670">
   <g transform="translate(101.54,148.978)">
    <g transform="matrix(0,-1,1,0,0,0)">
     <g id="silkscreen">
      <text xmlns:xml="http://www.w3.org/XML/1998/namespace" id="label" font-size="4.16813" font-family="OCRA" x="6.25219" y="3.75132" stroke-width="0" xml:space="preserve" text-anchor="middle" fill="black">GND</text>
     </g>
    </g>
   </g>
  </g>
  <g partID="855082650">
   <g transform="translate(123.14,147.578)">
    <g transform="matrix(0,-1,1,0,0,0)">
     <g id="silkscreen">
      <text xmlns:xml="http://www.w3.org/XML/1998/namespace" id="label" font-size="4.16814" font-family="OCRA" x="2.08407" y="3.75132" stroke-width="0" xml:space="preserve" text-anchor="middle" fill="black">0</text>
     </g>
    </g>
   </g>
  </g>
  <g partID="855082630">
   <g transform="translate(130.34,147.578)">
    <g transform="matrix(0,-1,1,0,0,0)">
     <g id="silkscreen">
      <text xmlns:xml="http://www.w3.org/XML/1998/namespace" id="label" font-size="4.16814" font-family="OCRA" x="2.08407" y="3.75132" stroke-width="0" xml:space="preserve" text-anchor="middle" fill="black">1</text>
     </g>
    </g>
   </g>
  </g>
  <g partID="855082610">
   <g transform="translate(137.54,147.578)">
    <g transform="matrix(0,-1,1,0,0,0)">
     <g id="silkscreen">
      <text xmlns:xml="http://www.w3.org/XML/1998/namespace" id="label" font-size="4.16814" font-family="OCRA" x="2.08407" y="3.75132" stroke-width="0" xml:space="preserve" text-anchor="middle" fill="black">2</text>
     </g>
    </g>
   </g>
  </g>
  <g partID="855082590">
   <g transform="translate(144.74,147.578)">
    <g transform="matrix(0,-1,1,0,0,0)">
     <g id="silkscreen">
      <text xmlns:xml="http://www.w3.org/XML/1998/namespace" id="label" font-size="4.16814" font-family="OCRA" x="2.08407" y="3.75132" stroke-width="0" xml:space="preserve" text-anchor="middle" fill="black">3</text>
     </g>
    </g>
   </g>
  </g>
  <g partID="855082570">
   <g transform="translate(151.94,147.578)">
    <g transform="matrix(0,-1,1,0,0,0)">
     <g id="silkscreen">
      <text xmlns:xml="http://www.w3.org/XML/1998/namespace" id="label" font-size="4.16814" font-family="OCRA" x="2.08407" y="3.75132" stroke-width="0" xml:space="preserve" text-anchor="middle" fill="black">4</text>
     </g>
    </g>
   </g>
  </g>
  <g partID="855082530">
   <g transform="translate(159.14,147.578)">
    <g transform="matrix(0,-1,1,0,0,0)">
     <g id="silkscreen">
      <text xmlns:xml="http://www.w3.org/XML/1998/namespace" id="label" font-size="4.16814" font-family="OCRA" x="2.08407" y="3.75132" stroke-width="0" xml:space="preserve" text-anchor="middle" fill="black">5</text>
     </g>
    </g>
   </g>
  </g>
  <g partID="855082510">
   <g transform="translate(24.0016,97.8073)">
    <g transform="matrix(0,-1,1,0,0,0)">
     <g id="silkscreen">
      <text xmlns:xml="http://www.w3.org/XML/1998/namespace" id="label" font-size="4.16815" font-family="OCRA" x="4.16815" y="3.75132" stroke-width="0" xml:space="preserve" text-anchor="middle" fill="black">5V</text>
     </g>
    </g>
   </g>
  </g>
  <g partID="855082490">
   <g transform="translate(51.4226,129.274)">
    <g transform="matrix(1,0,0,1,0,0)">
     <g id="silkscreen">
      <text xmlns:xml="http://www.w3.org/XML/1998/namespace" id="label" font-size="4.16815" font-family="OCRA" x="4.16815" y="3.75132" stroke-width="0" xml:space="preserve" fill="black" text-anchor="middle">ON</text>
     </g>
    </g>
   </g>
  </g>
  <g partID="855082440">
   <g transform="translate(43.6592,98.4458)">
    <g transform="matrix(1,0,0,1,0,0)">
     <g id="silkscreen">
      <text xmlns:xml="http://www.w3.org/XML/1998/namespace" id="label" font-size="4.16813" font-family="OCRA" x="14.5885" y="3.75132" stroke-width="0" xml:space="preserve" text-anchor="middle" fill="black">10V/1uF</text>
     </g>
    </g>
   </g>
  </g>
  <g partID="855082420">
   <g transform="translate(125.262,46.332)">
    <g transform="matrix(1,0,0,1,0,0)">
     <g id="silkscreen">
      <text xmlns:xml="http://www.w3.org/XML/1998/namespace" id="label" font-size="4.16814" font-family="OCRA" x="10.4203" y="3.75132" stroke-width="0" xml:space="preserve" text-anchor="middle" fill="black">100nF</text>
     </g>
    </g>
   </g>
  </g>
  <g partID="855082400">
   <g transform="translate(121.491,69.9892)">
    <g transform="matrix(1,0,0,1,0,0)">
     <g id="silkscreen">
      <text xmlns:xml="http://www.w3.org/XML/1998/namespace" id="label" font-size="4.16814" font-family="OCRA" x="10.4203" y="3.75132" stroke-width="0" xml:space="preserve" text-anchor="middle" fill="black">16Mhz</text>
     </g>
    </g>
   </g>
  </g>
  <g partID="855082380">
   <g transform="translate(84.7722,108.732)">
    <g transform="matrix(1,0,0,1,0,0)">
     <g id="silkscreen">
      <text xmlns:xml="http://www.w3.org/XML/1998/namespace" id="label" font-size="4.16813" font-family="OCRA" x="6.25219" y="3.75132" stroke-width="0" xml:space="preserve" text-anchor="middle" fill="black">220</text>
     </g>
    </g>
   </g>
  </g>
  <g partID="855082360">
   <g transform="translate(154.347,59.4178)">
    <g transform="matrix(1,0,0,1,0,0)">
     <g id="silkscreen">
      <text xmlns:xml="http://www.w3.org/XML/1998/namespace" id="label" font-size="4.16815" font-family="OCRA" x="4.16815" y="3.75132" stroke-width="0" xml:space="preserve" text-anchor="middle" fill="black">1K</text>
     </g>
    </g>
   </g>
  </g>
  <g partID="855082340">
   <g transform="translate(181.141,123.125)">
    <g transform="matrix(0,-1,1,0,0,0)">
     <g id="silkscreen">
      <text xmlns:xml="http://www.w3.org/XML/1998/namespace" id="label" font-size="4.16813" font-family="OCRA" x="6.25219" y="3.75132" stroke-width="0" xml:space="preserve" text-anchor="middle" fill="black">USB</text>
     </g>
    </g>
   </g>
  </g>
  <g partID="855082320">
   <g transform="translate(168.923,56.0463)">
    <g transform="matrix(1,0,0,1,0,0)">
     <g id="silkscreen">
      <text xmlns:xml="http://www.w3.org/XML/1998/namespace" id="label" font-size="4.16814" font-family="OCRA" x="10.4203" y="3.75132" stroke-width="0" xml:space="preserve" text-anchor="middle" fill="black">RESET</text>
     </g>
    </g>
   </g>
  </g>
  <g partID="855082300">
   <g transform="translate(76.9226,158.447)">
    <g transform="matrix(1,0,0,1,0,0)">
     <g id="silkscreen">
      <text xmlns:xml="http://www.w3.org/XML/1998/namespace" id="label" font-size="4.16814" font-family="OCRA" x="10.4203" y="3.75132" stroke-width="0" xml:space="preserve" text-anchor="middle" fill="black">POWER</text>
     </g>
    </g>
   </g>
  </g>
  <g partID="855082280">
   <g transform="translate(124.923,158.447)">
    <g transform="matrix(1,0,0,1,0,0)">
     <g id="silkscreen">
      <text xmlns:xml="http://www.w3.org/XML/1998/namespace" id="label" font-size="4.16814" font-family="OCRA" x="18.7566" y="3.75132" stroke-width="0" xml:space="preserve" text-anchor="middle" fill="black">ANALOG IN</text>
     </g>
    </g>
   </g>
  </g>
  <g partID="855082260">
   <g transform="translate(90.9226,3.94193)">
    <g transform="matrix(1,0,0,1,0,0)">
     <g id="silkscreen">
      <text xmlns:xml="http://www.w3.org/XML/1998/namespace" id="label" font-size="4.16813" font-family="OCRA" x="14.5885" y="3.75132" stroke-width="0" xml:space="preserve" text-anchor="middle" fill="black">DIGITAL</text>
     </g>
    </g>
   </g>
  </g>
  <g partID="855082240">
   <g transform="translate(53.7525,32.0707)">
    <g transform="matrix(0,-1,1,0,0,0)">
     <g id="silkscreen">
      <text xmlns:xml="http://www.w3.org/XML/1998/namespace" id="label" font-size="4.16813" font-family="OCRA" x="6.25219" y="3.75132" stroke-width="0" xml:space="preserve" text-anchor="middle" fill="black">GND</text>
     </g>
    </g>
   </g>
  </g>
  <g partID="855082220">
   <g transform="translate(60.9525,28.4041)">
    <g transform="matrix(0,-1,1,0,0,0)">
     <g id="silkscreen">
      <text xmlns:xml="http://www.w3.org/XML/1998/namespace" id="label" font-size="4.16815" font-family="OCRA" x="4.16815" y="3.75132" stroke-width="0" xml:space="preserve" text-anchor="middle" fill="black">13</text>
     </g>
    </g>
   </g>
  </g>
  <g partID="855082200">
   <g transform="translate(68.1525,28.4041)">
    <g transform="matrix(0,-1,1,0,0,0)">
     <g id="silkscreen">
      <text xmlns:xml="http://www.w3.org/XML/1998/namespace" id="label" font-size="4.16815" font-family="OCRA" x="4.16815" y="3.75132" stroke-width="0" xml:space="preserve" text-anchor="middle" fill="black">12</text>
     </g>
    </g>
   </g>
  </g>
  <g partID="855082180">
   <g transform="translate(75.3525,31.5373)">
    <g transform="matrix(0,-1,1,0,0,0)">
     <g id="silkscreen">
      <text xmlns:xml="http://www.w3.org/XML/1998/namespace" id="label" font-size="4.16813" font-family="OCRA" x="6.25219" y="3.75132" stroke-width="0" xml:space="preserve" text-anchor="middle" fill="black">~11</text>
     </g>
    </g>
   </g>
  </g>
  <g partID="855082160">
   <g transform="translate(82.5525,31.5373)">
    <g transform="matrix(0,-1,1,0,0,0)">
     <g id="silkscreen">
      <text xmlns:xml="http://www.w3.org/XML/1998/namespace" id="label" font-size="4.16813" font-family="OCRA" x="6.25219" y="3.75132" stroke-width="0" xml:space="preserve" text-anchor="middle" fill="black">~10</text>
     </g>
    </g>
   </g>
  </g>
  <g partID="855082140">
   <g transform="translate(89.7525,27.8707)">
    <g transform="matrix(0,-1,1,0,0,0)">
     <g id="silkscreen">
      <text xmlns:xml="http://www.w3.org/XML/1998/namespace" id="label" font-size="4.16815" font-family="OCRA" x="4.16815" y="3.75132" stroke-width="0" xml:space="preserve" text-anchor="middle" fill="black">~9</text>
     </g>
    </g>
   </g>
  </g>
  <g partID="855082120">
   <g transform="translate(97.6861,24.1564)">
    <g transform="matrix(0,-1,1,0,0,0)">
     <g id="silkscreen">
      <text xmlns:xml="http://www.w3.org/XML/1998/namespace" id="label" font-size="4.16814" font-family="OCRA" x="2.08407" y="3.75132" stroke-width="0" xml:space="preserve" text-anchor="middle" fill="black">8</text>
     </g>
    </g>
   </g>
  </g>
  <g partID="855082100">
   <g transform="translate(109.153,24.1564)">
    <g transform="matrix(0,-1,1,0,0,0)">
     <g id="silkscreen">
      <text xmlns:xml="http://www.w3.org/XML/1998/namespace" id="label" font-size="4.16814" font-family="OCRA" x="2.08407" y="3.75132" stroke-width="0" xml:space="preserve" text-anchor="middle" fill="black">7</text>
     </g>
    </g>
   </g>
  </g>
  <g partID="855082080">
   <g transform="translate(116.353,27.8707)">
    <g transform="matrix(0,-1,1,0,0,0)">
     <g id="silkscreen">
      <text xmlns:xml="http://www.w3.org/XML/1998/namespace" id="label" font-size="4.16815" font-family="OCRA" x="4.16815" y="3.75132" stroke-width="0" xml:space="preserve" text-anchor="middle" fill="black">~6</text>
     </g>
    </g>
   </g>
  </g>
  <g partID="855082060">
   <g transform="translate(123.553,27.8707)">
    <g transform="matrix(0,-1,1,0,0,0)">
     <g id="silkscreen">
      <text xmlns:xml="http://www.w3.org/XML/1998/namespace" id="label" font-size="4.16815" font-family="OCRA" x="4.16815" y="3.75132" stroke-width="0" xml:space="preserve" text-anchor="middle" fill="black">~5</text>
     </g>
    </g>
   </g>
  </g>
  <g partID="855082040">
   <g transform="translate(130.753,24.1564)">
    <g transform="matrix(0,-1,1,0,0,0)">
     <g id="silkscreen">
      <text xmlns:xml="http://www.w3.org/XML/1998/namespace" id="label" font-size="4.16814" font-family="OCRA" x="2.08407" y="3.75132" stroke-width="0" xml:space="preserve" text-anchor="middle" fill="black">4</text>
     </g>
    </g>
   </g>
  </g>
  <g partID="855082020">
   <g transform="translate(137.953,27.8707)">
    <g transform="matrix(0,-1,1,0,0,0)">
     <g id="silkscreen">
      <text xmlns:xml="http://www.w3.org/XML/1998/namespace" id="label" font-size="4.16815" font-family="OCRA" x="4.16815" y="3.75132" stroke-width="0" xml:space="preserve" text-anchor="middle" fill="black">~3</text>
     </g>
    </g>
   </g>
  </g>
  <g partID="855082000">
   <g transform="translate(145.153,24.1564)">
    <g transform="matrix(0,-1,1,0,0,0)">
     <g id="silkscreen">
      <text xmlns:xml="http://www.w3.org/XML/1998/namespace" id="label" font-size="4.16814" font-family="OCRA" x="2.08407" y="3.75132" stroke-width="0" xml:space="preserve" text-anchor="middle" fill="black">2</text>
     </g>
    </g>
   </g>
  </g>
  <g partID="855081980">
   <g transform="translate(152.353,34.3278)">
    <g transform="matrix(0,-1,1,0,0,0)">
     <g id="silkscreen">
      <text xmlns:xml="http://www.w3.org/XML/1998/namespace" id="label" font-size="4.16813" font-family="OCRA" x="8.33627" y="3.75132" stroke-width="0" xml:space="preserve" text-anchor="middle" fill="black">TX&#x2190;1</text>
     </g>
    </g>
   </g>
  </g>
  <g partID="855081900">
   <g transform="translate(159.553,34.3278)">
    <g transform="matrix(0,-1,1,0,0,0)">
     <g id="silkscreen">
      <text xmlns:xml="http://www.w3.org/XML/1998/namespace" id="label" font-size="4.16813" font-family="OCRA" x="8.33627" y="3.75132" stroke-width="0" xml:space="preserve" text-anchor="middle" fill="black">RX&#x2190;0</text>
     </g>
    </g>
   </g>
  </g>
  <g partID="855081510">
   <g transform="translate(-8.88888,39.907)">
    <g id="silkscreen">
     <text xmlns:xml="http://www.w3.org/XML/1998/namespace" id="label" font-size="6.3143" font-family="OCRA" x="44.2001" y="5.68286" stroke-width="0" xml:space="preserve" text-anchor="middle" fill="black">Esdrasino v0.1</text>
    </g>
   </g>
  </g>
  <g partID="854978112">
   <g id="silkscreen">
    <rect stroke="black" width="197.866" height="170.48" stroke-width="0.576" x="0.288" y="0.288" fill="none"/>
   </g>
  </g>
  <g partID="854180602">
   <g transform="translate(60.1575,139.543)">
    <g transform="matrix(0,-1,1,0,0,0)">
     <g id="silkscreen">
      <path id="path2820" stroke="black" stroke-width="0.56696" stroke-linejoin="round" stroke-linecap="round" d="M13.912,0.3048c3.748,2.8296,4.4912,8.1624,1.6608,11.9112c-2.8304,3.748,-8.1632,4.4912,-11.9112,1.6608S-0.8288,5.7128,2.0016,1.9656C2.4824,1.328,3.0504,0.7616,3.6904,0.2832" fill="none"/>
      <path id="path3707" stroke="black" stroke-width="0.56696" stroke-linecap="round" d="M13.8896,0.2872L3.6848,0.2872" fill="none"/>
     </g>
    </g>
   </g>
  </g>
  <g partID="854184302">
   <g transform="translate(104.64,10.4889)">
    <g transform="matrix(0,1,-1,0,0,0)">
     <g id="silkscreen">
      <line stroke="black" y1="1.44" stroke-width="0.72" x1="1.44" y2="59.04" x2="1.44"/>
      <line stroke="black" y1="59.04" stroke-width="0.72" x1="1.44" y2="59.04" x2="8.64"/>
      <line stroke="black" y1="59.04" stroke-width="0.72" x1="8.64" y2="1.44" x2="8.64"/>
      <line stroke="black" y1="1.44" stroke-width="0.72" x1="8.64" y2="1.44" x2="1.44"/>
      <line stroke="black" y1="3.96" stroke-width="0.36" x1="1.44" y2="1.44" x2="3.96"/>
      <!-- 120 -->
     </g>
    </g>
   </g>
  </g>
  <g partID="854180952">
   <g transform="translate(84.6971,130.185)">
    <g transform="matrix(-0.438371,-0.898794,0.898794,-0.438371,0,0)">
     <g id="silkscreen">
      <line stroke="black" y1="3.096" x1="5.4" stroke-width="0.72" y2="3.096" x2="10.584"/>
      <line stroke="black" y1="3.096" x1="24.984" stroke-width="0.72" y2="3.096" x2="28.8"/>
      <line stroke="black" y1="0.72" x1="10.584" stroke-width="0.72" y2="0.72" x2="24.984"/>
      <line stroke="black" y1="0.72" x1="24.984" stroke-width="0.72" y2="5.472" x2="24.984"/>
      <line stroke="black" y1="5.472" x1="24.984" stroke-width="0.72" y2="5.472" x2="10.584"/>
      <line stroke="black" y1="5.472" x1="10.584" stroke-width="0.72" y2="0.72" x2="10.584"/>
     </g>
    </g>
   </g>
  </g>
  <g partID="854181362">
   <g transform="translate(179.511,139.396)">
    <g transform="matrix(-1,0,0,-1,0,0)">
     <g id="silkscreen">
      <line stroke="black" y1="1.44" stroke-width="0.72" x1="1.44" y2="44.64" x2="1.44"/>
      <line stroke="black" y1="44.64" stroke-width="0.72" x1="1.44" y2="44.64" x2="8.64"/>
      <line stroke="black" y1="44.64" stroke-width="0.72" x1="8.64" y2="1.44" x2="8.64"/>
      <line stroke="black" y1="1.44" stroke-width="0.72" x1="8.64" y2="1.44" x2="1.44"/>
      <line stroke="black" y1="3.96" stroke-width="0.36" x1="1.44" y2="1.44" x2="3.96"/>
      <!-- 120 -->
     </g>
    </g>
   </g>
  </g>
  <g partID="854405322">
   <g transform="translate(120.471,157.396)">
    <g transform="matrix(0,-1,1,0,0,0)">
     <g id="silkscreen">
      <line stroke="black" y1="1.44" stroke-width="0.72" x1="1.44" y2="44.64" x2="1.44"/>
      <line stroke="black" y1="44.64" stroke-width="0.72" x1="1.44" y2="44.64" x2="8.64"/>
      <line stroke="black" y1="44.64" stroke-width="0.72" x1="8.64" y2="1.44" x2="8.64"/>
      <line stroke="black" y1="1.44" stroke-width="0.72" x1="8.64" y2="1.44" x2="1.44"/>
      <line stroke="black" y1="3.96" stroke-width="0.36" x1="1.44" y2="1.44" x2="3.96"/>
      <!-- 120 -->
     </g>
    </g>
   </g>
  </g>
  <g partID="854183612">
   <g transform="translate(166.506,10.5156)">
    <g transform="matrix(0,1,-1,0,0,0)">
     <g id="silkscreen">
      <line stroke="black" y1="1.44" stroke-width="0.72" x1="1.44" y2="59.04" x2="1.44"/>
      <line stroke="black" y1="59.04" stroke-width="0.72" x1="1.44" y2="59.04" x2="8.64"/>
      <line stroke="black" y1="59.04" stroke-width="0.72" x1="8.64" y2="1.44" x2="8.64"/>
      <line stroke="black" y1="1.44" stroke-width="0.72" x1="8.64" y2="1.44" x2="1.44"/>
      <line stroke="black" y1="3.96" stroke-width="0.36" x1="1.44" y2="1.44" x2="3.96"/>
      <!-- 120 -->
     </g>
    </g>
   </g>
  </g>
  <g partID="854185532">
   <g transform="translate(116.151,147.316)">
    <g transform="matrix(0,1,-1,0,0,0)">
     <g id="silkscreen">
      <line stroke="black" y1="1.44" stroke-width="0.72" x1="1.44" y2="59.04" x2="1.44"/>
      <line stroke="black" y1="59.04" stroke-width="0.72" x1="1.44" y2="59.04" x2="8.64"/>
      <line stroke="black" y1="59.04" stroke-width="0.72" x1="8.64" y2="1.44" x2="8.64"/>
      <line stroke="black" y1="1.44" stroke-width="0.72" x1="8.64" y2="1.44" x2="1.44"/>
      <line stroke="black" y1="3.96" stroke-width="0.36" x1="1.44" y2="1.44" x2="3.96"/>
      <!-- 120 -->
     </g>
    </g>
   </g>
  </g>
  <g partID="854177092">
   <g transform="translate(56.7511,120.316)">
    <g transform="matrix(0,-1,1,0,0,0)">
     <g id="silkscreen">
      <circle cy="7.56" id="circle7" stroke="black" cx="7.56" stroke-width="0.72" r="7.2" fill="none"/>
      <path stroke="black" stroke-width="0.792" d="m2.88,3.6,2.16,0" stroke-linecap="round" fill="none"/>
      <path stroke="black" stroke-width="0.792" d="m2.88,11.52,2.16,0" stroke-linecap="round" fill="none"/>
     </g>
    </g>
   </g>
  </g>
  <g partID="854177192">
   <g transform="translate(31.5511,108.796)">
    <g id="silkscreen">
     <circle cy="7.56" id="circle7" stroke="black" cx="7.56" stroke-width="0.72" r="7.2" fill="none"/>
     <path stroke="black" stroke-width="0.792" d="m2.88,3.6,2.16,0" stroke-linecap="round" fill="none"/>
     <path stroke="black" stroke-width="0.792" d="m2.88,11.52,2.16,0" stroke-linecap="round" fill="none"/>
    </g>
   </g>
  </g>
  <g partID="255952">
   <g transform="translate(23.9911,109.156)">
    <g transform="matrix(0,-1,1,0,0,0)">
     <g id="silkscreen">
      <line stroke="black" y1="5.76" stroke-width="0.72" x1="1.44" y2="5.76" x2="30.24"/>
      <line stroke="black" y1="5.76" stroke-width="0.72" x1="30.24" y2="18.72" x2="30.24"/>
      <line stroke="black" y1="18.72" stroke-width="0.72" x1="30.24" y2="18.72" x2="1.44"/>
      <line stroke="black" y1="18.72" stroke-width="0.72" x1="1.44" y2="5.76" x2="1.44"/>
      <line stroke="black" y1="5.76" stroke-width="0.72" x1="1.44" y2="5.76" x2="30.24"/>
      <line stroke="black" y1="5.76" stroke-width="0.72" x1="30.24" y2="10.08" x2="30.24"/>
      <line stroke="black" y1="10.08" stroke-width="0.72" x1="30.24" y2="10.08" x2="1.44"/>
      <line stroke="black" y1="10.08" stroke-width="0.72" x1="1.44" y2="5.76" x2="1.44"/>
      <line stroke="black" y1="5.76" stroke-width="0.36" x1="10.8" y2="10.08" x2="10.8"/>
      <line stroke="black" y1="5.76" stroke-width="0.36" x1="20.88" y2="10.08" x2="20.88"/>
     </g>
    </g>
   </g>
  </g>
  <g partID="854769462">
   <g transform="translate(151.623,109.411)">
    <g transform="matrix(-0.707107,0.707107,-0.707107,-0.707107,0,0)">
     <g id="silkscreen" stroke-width="0">
      <line stroke="black" y1="0.72" stroke-width="0.72" x1="0.72" y2="101.52" x2="0.72"/>
      <line stroke="black" y1="101.52" stroke-width="0.72" x1="0.72" y2="101.52" x2="29.52"/>
      <line stroke="black" y1="101.52" stroke-width="0.72" x1="29.52" y2="0.72" x2="29.52"/>
      <line stroke="black" y1="0.72" stroke-width="0.72" x1="0.72" y2="0.72" x2="11.52"/>
      <line stroke="black" y1="0.72" stroke-width="0.72" x1="18.72" y2="0.72" x2="29.52"/>
     </g>
    </g>
   </g>
  </g>
  <g partID="854177152">
   <g transform="translate(154.986,100.997)">
    <g transform="matrix(0.0174524,-0.999848,0.999848,0.0174524,0,0)">
     <g id="silkscreen">
      <line stroke="black" y1="3.096" x1="5.4" stroke-width="0.72" y2="3.096" x2="10.584"/>
      <line stroke="black" y1="3.096" x1="24.984" stroke-width="0.72" y2="3.096" x2="28.8"/>
      <line stroke="black" y1="0.72" x1="10.584" stroke-width="0.72" y2="0.72" x2="24.984"/>
      <line stroke="black" y1="0.72" x1="24.984" stroke-width="0.72" y2="5.472" x2="24.984"/>
      <line stroke="black" y1="5.472" x1="24.984" stroke-width="0.72" y2="5.472" x2="10.584"/>
      <line stroke="black" y1="5.472" x1="10.584" stroke-width="0.72" y2="0.72" x2="10.584"/>
     </g>
    </g>
   </g>
  </g>
  <g partID="854177112">
   <g transform="translate(188.837,62.8149)">
    <g transform="matrix(0,1,-1,0,0,0)">
     <g id="silkscreen">
      <line stroke="black" y1="6.38928" stroke-width="0.72" x1="20.137" y2="12.0586" x2="20.137"/>
      <line stroke="black" y1="0.72" stroke-width="0.72" x1="5.96376" y2="0.72" x2="18.0115"/>
      <line stroke="black" y1="17.7278" stroke-width="0.72" x1="5.96376" y2="17.7278" x2="18.0115"/>
      <line stroke="black" y1="6.38928" stroke-width="0.72" x1="3.12912" y2="12.0586" x2="3.12912"/>
      <line stroke="black" y1="7.80696" stroke-width="0.72" x1="11.633" y2="10.6416" x2="11.633"/>
      <line stroke="black" y1="9.22392" stroke-width="0.72" x1="13.0507" y2="9.22392" x2="10.2161"/>
     </g>
    </g>
   </g>
  </g>
  <g partID="854177132">
   <g transform="translate(110.962,45.9469)">
    <g transform="matrix(0.374607,-0.927184,0.927184,0.374607,0,0)">
     <g id="silkscreen">
      <g transform="matrix(1, 0, 0, 1, 4.68, 1.8)">
       <path id="path4213" stroke="black" stroke-opacity="1" stroke-width="0.576" d="M1.78537,-0.0517878A5.4,5.4,0,0,1,8.98094,-0.0818934" style="stroke-linecap:round;stroke-linejoin:round;stroke-miterlimit:4;stroke-dasharray:none" fill="none"/>
      </g>
      <g transform="matrix(-1, 0, 0, -1, 15.48, 3.96)">
       <path id="path4213-0" stroke="black" stroke-opacity="1" stroke-width="0.576" d="M1.78537,-0.0517878A5.4,5.4,0,0,1,8.98094,-0.0818934" style="stroke-linecap:round;stroke-linejoin:round;stroke-miterlimit:4;stroke-dasharray:none" fill="none"/>
      </g>
     </g>
    </g>
   </g>
  </g>
  <g partID="854177172">
   <g transform="translate(129.362,35.8295)">
    <g transform="matrix(-0.438371,0.898794,-0.898794,-0.438371,0,0)">
     <g id="silkscreen">
      <g transform="matrix(1, 0, 0, 1, 4.68, 1.8)">
       <path id="path4213" stroke="black" stroke-opacity="1" stroke-width="0.576" d="M1.78537,-0.0517878A5.4,5.4,0,0,1,8.98094,-0.0818934" style="stroke-linecap:round;stroke-linejoin:round;stroke-miterlimit:4;stroke-dasharray:none" fill="none"/>
      </g>
      <g transform="matrix(-1, 0, 0, -1, 15.48, 3.96)">
       <path id="path4213-0" stroke="black" stroke-opacity="1" stroke-width="0.576" d="M1.78537,-0.0517878A5.4,5.4,0,0,1,8.98094,-0.0818934" style="stroke-linecap:round;stroke-linejoin:round;stroke-miterlimit:4;stroke-dasharray:none" fill="none"/>
      </g>
     </g>
    </g>
   </g>
  </g>
  <g partID="854177212">
   <g transform="translate(119.274,72.687)">
    <g transform="matrix(-0.743145,-0.669131,0.669131,-0.743145,0,0)">
     <g id="silkscreen">
      <rect width="30.3307" id="rect4181" stroke="black" stroke-opacity="1" height="13.3228" x="0.425197" y="0.425197" stroke-width="0.708661" style="stroke-linecap:round;stroke-linejoin:round;stroke-miterlimit:4;stroke-dasharray:none" ry="6.66142" fill="none"/>
      <rect width="2.07874" id="rect4193" stroke="black" stroke-opacity="1" height="6.23622" x="14.5512" y="3.9685" stroke-width="0.708661" style="stroke-linecap:round;stroke-linejoin:round;stroke-miterlimit:4;stroke-dasharray:none" fill="none"/>
      <path id="path4195" stroke="black" stroke-opacity="1" stroke-width="0.708661" d="m17.8583,4.25197,0,5.66929" style="stroke-linecap:round;stroke-linejoin:miter;stroke-miterlimit:4;stroke-dasharray:none" fill="none"/>
      <path id="path4199" stroke="black" stroke-opacity="1" stroke-width="0.708661" d="m13.3228,4.25197,0,5.66929" style="stroke-linecap:round;stroke-linejoin:miter;stroke-miterlimit:4;stroke-dasharray:none" fill="none"/>
     </g>
    </g>
   </g>
  </g>
  <g partID="497202">
   <g transform="translate(6.35112,124.996)">
    <g id="silkscreen">
     <line stroke="black" y1="25.2" stroke-width="0.72" x1="21.96" y2="25.2" x2="0.72"/>
     <line stroke="black" y1="25.2" stroke-width="0.72" x1="0.72" y2="0.72" x2="0.72"/>
     <line stroke="black" y1="0.72" stroke-width="0.72" x1="0.72" y2="0.72" x2="41.04"/>
     <line stroke="black" y1="0.72" stroke-width="0.72" x1="41.04" y2="4.32" x2="41.04"/>
     <line stroke="black" y1="25.2" stroke-width="0.72" x1="38.16" y2="25.2" x2="41.04"/>
     <line stroke="black" y1="25.2" stroke-width="0.72" x1="41.04" y2="21.6" x2="41.04"/>
     <line stroke="black" y1="25.2" stroke-width="0.72" x1="0.72" y2="0.72" x2="0.72"/>
     <line stroke="black" y1="25.2" stroke-width="0.72" x1="1.08" y2="0.72" x2="1.08"/>
     <line stroke="black" y1="25.2" stroke-width="0.72" x1="1.44" y2="0.72" x2="1.44"/>
     <line stroke="black" y1="25.2" stroke-width="0.72" x1="1.8" y2="0.72" x2="1.8"/>
     <line stroke="black" y1="25.2" stroke-width="0.72" x1="2.16" y2="0.72" x2="2.16"/>
     <line stroke="black" y1="25.2" stroke-width="0.72" x1="2.52" y2="0.72" x2="2.52"/>
     <line stroke="black" y1="25.2" stroke-width="0.72" x1="2.88" y2="0.72" x2="2.88"/>
     <line stroke="black" y1="25.2" stroke-width="0.72" x1="3.24" y2="0.72" x2="3.24"/>
     <line stroke="black" y1="25.2" stroke-width="0.72" x1="10.08" y2="0.72" x2="10.08"/>
     <line stroke="black" y1="25.2" stroke-width="0.72" x1="9.72" y2="0.72" x2="9.72"/>
     <line stroke="black" y1="25.2" stroke-width="0.72" x1="9.36" y2="0.72" x2="9.36"/>
     <line stroke="black" y1="25.2" stroke-width="0.72" x1="9" y2="0.72" x2="9"/>
     <line stroke="black" y1="25.2" stroke-width="0.72" x1="8.64" y2="0.72" x2="8.64"/>
     <line stroke="black" y1="25.2" stroke-width="0.72" x1="8.28" y2="0.72" x2="8.28"/>
     <line stroke="black" y1="25.2" stroke-width="0.72" x1="7.92" y2="0.72" x2="7.92"/>
     <line stroke="black" y1="25.2" stroke-width="0.72" x1="7.56" y2="0.72" x2="7.56"/>
    </g>
   </g>
  </g>
  <g partID="854180601">
   <g transform="translate(60.1575,139.543)">
    <g transform="matrix(0,-1,1,0,0,0)">
     <g id="copper1">
      <circle cy="10.6336" id="connector1pad" stroke="white" cx="8.7876" stroke-width="1.85384" r="1.7008" fill="white"/>
      <rect stroke="white" width="3.4016" height="3.4016" stroke-width="1.85384" x="7.0868" y="8.9328" fill="white"/>
      <circle cy="3.5464" id="connector0pad" stroke="white" cx="8.7876" stroke-width="1.85384" r="1.7008" fill="white"/>
     </g>
    </g>
   </g>
  </g>
  <g partID="854184301">
   <g transform="translate(104.64,10.4889)">
    <g transform="matrix(0,1,-1,0,0,0)">
     <g id="copper1">
      <g id="copper0">
       <circle cy="5.04" id="connector0pin" stroke="white" cx="5.04" stroke-width="2.16" r="2.088" fill="white"/>
       <circle cy="12.24" id="connector1pin" stroke="white" cx="5.04" stroke-width="2.16" r="2.088" fill="white"/>
       <circle cy="19.44" id="connector2pin" stroke="white" cx="5.04" stroke-width="2.16" r="2.088" fill="white"/>
       <circle cy="26.64" id="connector3pin" stroke="white" cx="5.04" stroke-width="2.16" r="2.088" fill="white"/>
       <circle cy="33.84" id="connector4pin" stroke="white" cx="5.04" stroke-width="2.16" r="2.088" fill="white"/>
       <circle cy="41.04" id="connector5pin" stroke="white" cx="5.04" stroke-width="2.16" r="2.088" fill="white"/>
       <circle cy="48.24" id="connector6pin" stroke="white" cx="5.04" stroke-width="2.16" r="2.088" fill="white"/>
       <circle cy="55.44" id="connector7pin" stroke="white" cx="5.04" stroke-width="2.16" r="2.088" fill="white"/>
      </g>
     </g>
    </g>
   </g>
  </g>
  <g partID="854180951">
   <g transform="translate(84.6971,130.185)">
    <g transform="matrix(-0.438371,-0.898794,0.898794,-0.438371,0,0)">
     <g id="copper1">
      <!-- <rect width="55" x="10" y="15.5" fill="none" height="55" stroke="rgb(255, 191, 0)" stroke-width="20" />  -->
      <circle cy="3.096" stroke="white" id="connector0pin" cx="2.7" stroke-width="2.16" r="1.98" fill="white"/>
      <circle cy="3.096" stroke="white" id="connector1pin" cx="31.5" stroke-width="2.16" r="1.98" fill="white"/>
     </g>
    </g>
   </g>
  </g>
  <g partID="854181361">
   <g transform="translate(179.511,139.396)">
    <g transform="matrix(-1,0,0,-1,0,0)">
     <g id="copper1">
      <g id="copper0">
       <circle cy="5.04" id="connector0pin" stroke="white" cx="5.04" stroke-width="2.16" r="2.088" fill="white"/>
       <circle cy="12.24" id="connector1pin" stroke="white" cx="5.04" stroke-width="2.16" r="2.088" fill="white"/>
       <circle cy="19.44" id="connector2pin" stroke="white" cx="5.04" stroke-width="2.16" r="2.088" fill="white"/>
       <circle cy="26.64" id="connector3pin" stroke="white" cx="5.04" stroke-width="2.16" r="2.088" fill="white"/>
       <circle cy="33.84" id="connector4pin" stroke="white" cx="5.04" stroke-width="2.16" r="2.088" fill="white"/>
       <circle cy="41.04" id="connector5pin" stroke="white" cx="5.04" stroke-width="2.16" r="2.088" fill="white"/>
      </g>
     </g>
    </g>
   </g>
  </g>
  <g partID="854405321">
   <g transform="translate(120.471,157.396)">
    <g transform="matrix(0,-1,1,0,0,0)">
     <g id="copper1">
      <g id="copper0">
       <circle cy="5.04" id="connector0pin" stroke="white" cx="5.04" stroke-width="2.16" r="2.088" fill="white"/>
       <circle cy="12.24" id="connector1pin" stroke="white" cx="5.04" stroke-width="2.16" r="2.088" fill="white"/>
       <circle cy="19.44" id="connector2pin" stroke="white" cx="5.04" stroke-width="2.16" r="2.088" fill="white"/>
       <circle cy="26.64" id="connector3pin" stroke="white" cx="5.04" stroke-width="2.16" r="2.088" fill="white"/>
       <circle cy="33.84" id="connector4pin" stroke="white" cx="5.04" stroke-width="2.16" r="2.088" fill="white"/>
       <circle cy="41.04" id="connector5pin" stroke="white" cx="5.04" stroke-width="2.16" r="2.088" fill="white"/>
      </g>
     </g>
    </g>
   </g>
  </g>
  <g partID="854183611">
   <g transform="translate(166.506,10.5156)">
    <g transform="matrix(0,1,-1,0,0,0)">
     <g id="copper1">
      <g id="copper0">
       <circle cy="5.04" id="connector0pin" stroke="white" cx="5.04" stroke-width="2.16" r="2.088" fill="white"/>
       <circle cy="12.24" id="connector1pin" stroke="white" cx="5.04" stroke-width="2.16" r="2.088" fill="white"/>
       <circle cy="19.44" id="connector2pin" stroke="white" cx="5.04" stroke-width="2.16" r="2.088" fill="white"/>
       <circle cy="26.64" id="connector3pin" stroke="white" cx="5.04" stroke-width="2.16" r="2.088" fill="white"/>
       <circle cy="33.84" id="connector4pin" stroke="white" cx="5.04" stroke-width="2.16" r="2.088" fill="white"/>
       <circle cy="41.04" id="connector5pin" stroke="white" cx="5.04" stroke-width="2.16" r="2.088" fill="white"/>
       <circle cy="48.24" id="connector6pin" stroke="white" cx="5.04" stroke-width="2.16" r="2.088" fill="white"/>
       <circle cy="55.44" id="connector7pin" stroke="white" cx="5.04" stroke-width="2.16" r="2.088" fill="white"/>
      </g>
     </g>
    </g>
   </g>
  </g>
  <g partID="854185531">
   <g transform="translate(116.151,147.316)">
    <g transform="matrix(0,1,-1,0,0,0)">
     <g id="copper1">
      <g id="copper0">
       <circle cy="5.04" id="connector0pin" stroke="white" cx="5.04" stroke-width="2.16" r="2.088" fill="white"/>
       <circle cy="12.24" id="connector1pin" stroke="white" cx="5.04" stroke-width="2.16" r="2.088" fill="white"/>
       <circle cy="19.44" id="connector2pin" stroke="white" cx="5.04" stroke-width="2.16" r="2.088" fill="white"/>
       <circle cy="26.64" id="connector3pin" stroke="white" cx="5.04" stroke-width="2.16" r="2.088" fill="white"/>
       <circle cy="33.84" id="connector4pin" stroke="white" cx="5.04" stroke-width="2.16" r="2.088" fill="white"/>
       <circle cy="41.04" id="connector5pin" stroke="white" cx="5.04" stroke-width="2.16" r="2.088" fill="white"/>
       <circle cy="48.24" id="connector6pin" stroke="white" cx="5.04" stroke-width="2.16" r="2.088" fill="white"/>
       <circle cy="55.44" id="connector7pin" stroke="white" cx="5.04" stroke-width="2.16" r="2.088" fill="white"/>
      </g>
     </g>
    </g>
   </g>
  </g>
  <g partID="854177091">
   <g transform="translate(56.7511,120.316)">
    <g transform="matrix(0,-1,1,0,0,0)">
     <g id="copper1">
      <g id="copper0">
       <rect width="3.96" id="rect11" stroke="white" height="3.96" x="1.98" y="5.58" stroke-width="2.16" fill="white"/>
       <circle cy="7.56" id="connector0pin" stroke="white" cx="3.96" stroke-width="2.16" r="1.98" fill="white"/>
       <circle cy="7.56" id="connector1pin" stroke="white" cx="11.16" stroke-width="2.16" r="1.98" fill="white"/>
      </g>
     </g>
    </g>
   </g>
  </g>
  <g partID="854177191">
   <g transform="translate(31.5511,108.796)">
    <g id="copper1">
     <g id="copper0">
      <rect width="3.96" id="rect11" stroke="white" height="3.96" x="1.98" y="5.58" stroke-width="2.16" fill="white"/>
      <circle cy="7.56" id="connector0pin" stroke="white" cx="3.96" stroke-width="2.16" r="1.98" fill="white"/>
      <circle cy="7.56" id="connector1pin" stroke="white" cx="11.16" stroke-width="2.16" r="1.98" fill="white"/>
     </g>
    </g>
   </g>
  </g>
  <g partID="255951">
   <g transform="translate(23.9911,109.156)">
    <g transform="matrix(0,-1,1,0,0,0)">
     <g id="copper1">
      <g id="copper0">
       <rect stroke="white" width="4.464" height="4.464" stroke-width="2.16" x="6.408" y="12.168" fill="white"/>
       <circle cy="14.4" id="connector0pad" stroke="white" cx="8.64" stroke-width="2.16" r="2.232" fill="white"/>
       <circle cy="14.4" id="connector1pad" stroke="white" cx="15.84" stroke-width="2.16" r="2.232" fill="white"/>
       <circle cy="14.4" id="connector2pad" stroke="white" cx="23.04" stroke-width="2.16" r="2.232" fill="white"/>
      </g>
     </g>
    </g>
   </g>
  </g>
  <g partID="854769461">
   <g transform="translate(151.623,109.411)">
    <g transform="matrix(-0.707107,0.707107,-0.707107,-0.707107,0,0)">
     <g id="copper1" stroke-width="0">
      <g id="copper0" stroke-width="0">
       <rect width="3.96" stroke="white" height="3.96" x="2.34" y="2.34" stroke-width="2.16" fill="white"/>
       <circle cy="4.32" stroke="white" id="connector0pin" cx="4.32" stroke-width="2.16" r="1.98" fill="white"/>
       <circle cy="4.32" stroke="white" id="connector27pin" cx="25.92" stroke-width="2.16" r="1.98" fill="white"/>
       <circle cy="11.52" stroke="white" id="connector1pin" cx="4.32" stroke-width="2.16" r="1.98" fill="white"/>
       <circle cy="11.52" stroke="white" id="connector26pin" cx="25.92" stroke-width="2.16" r="1.98" fill="white"/>
       <circle cy="18.72" stroke="white" id="connector2pin" cx="4.32" stroke-width="2.16" r="1.98" fill="white"/>
       <circle cy="18.72" stroke="white" id="connector25pin" cx="25.92" stroke-width="2.16" r="1.98" fill="white"/>
       <circle cy="25.92" stroke="white" id="connector3pin" cx="4.32" stroke-width="2.16" r="1.98" fill="white"/>
       <circle cy="25.92" stroke="white" id="connector24pin" cx="25.92" stroke-width="2.16" r="1.98" fill="white"/>
       <circle cy="33.12" stroke="white" id="connector4pin" cx="4.32" stroke-width="2.16" r="1.98" fill="white"/>
       <circle cy="33.12" stroke="white" id="connector23pin" cx="25.92" stroke-width="2.16" r="1.98" fill="white"/>
       <circle cy="40.32" stroke="white" id="connector5pin" cx="4.32" stroke-width="2.16" r="1.98" fill="white"/>
       <circle cy="40.32" stroke="white" id="connector22pin" cx="25.92" stroke-width="2.16" r="1.98" fill="white"/>
       <circle cy="47.52" stroke="white" id="connector6pin" cx="4.32" stroke-width="2.16" r="1.98" fill="white"/>
       <circle cy="47.52" stroke="white" id="connector21pin" cx="25.92" stroke-width="2.16" r="1.98" fill="white"/>
       <circle cy="54.72" stroke="white" id="connector7pin" cx="4.32" stroke-width="2.16" r="1.98" fill="white"/>
       <circle cy="54.72" stroke="white" id="connector20pin" cx="25.92" stroke-width="2.16" r="1.98" fill="white"/>
       <circle cy="61.92" stroke="white" id="connector8pin" cx="4.32" stroke-width="2.16" r="1.98" fill="white"/>
       <circle cy="61.92" stroke="white" id="connector19pin" cx="25.92" stroke-width="2.16" r="1.98" fill="white"/>
       <circle cy="69.12" stroke="white" id="connector9pin" cx="4.32" stroke-width="2.16" r="1.98" fill="white"/>
       <circle cy="69.12" stroke="white" id="connector18pin" cx="25.92" stroke-width="2.16" r="1.98" fill="white"/>
       <circle cy="76.32" stroke="white" id="connector10pin" cx="4.32" stroke-width="2.16" r="1.98" fill="white"/>
       <circle cy="76.32" stroke="white" id="connector17pin" cx="25.92" stroke-width="2.16" r="1.98" fill="white"/>
       <circle cy="83.52" stroke="white" id="connector11pin" cx="4.32" stroke-width="2.16" r="1.98" fill="white"/>
       <circle cy="83.52" stroke="white" id="connector16pin" cx="25.92" stroke-width="2.16" r="1.98" fill="white"/>
       <circle cy="90.72" stroke="white" id="connector12pin" cx="4.32" stroke-width="2.16" r="1.98" fill="white"/>
       <circle cy="90.72" stroke="white" id="connector15pin" cx="25.92" stroke-width="2.16" r="1.98" fill="white"/>
       <circle cy="97.92" stroke="white" id="connector13pin" cx="4.32" stroke-width="2.16" r="1.98" fill="white"/>
       <circle cy="97.92" stroke="white" id="connector14pin" cx="25.92" stroke-width="2.16" r="1.98" fill="white"/>
      </g>
     </g>
    </g>
   </g>
  </g>
  <g partID="854177151">
   <g transform="translate(154.986,100.997)">
    <g transform="matrix(0.0174524,-0.999848,0.999848,0.0174524,0,0)">
     <g id="copper1">
      <!-- <rect width="55" x="10" y="15.5" fill="none" height="55" stroke="rgb(255, 191, 0)" stroke-width="20" />  -->
      <circle cy="3.096" stroke="white" id="connector0pin" cx="2.7" stroke-width="2.16" r="1.98" fill="white"/>
      <circle cy="3.096" stroke="white" id="connector1pin" cx="31.5" stroke-width="2.16" r="1.98" fill="white"/>
     </g>
    </g>
   </g>
  </g>
  <g partID="854177111">
   <g transform="translate(188.837,62.8149)">
    <g transform="matrix(0,1,-1,0,0,0)">
     <g id="copper1">
      <g id="copper0">
       <circle cy="15.6024" id="connector0pad" stroke="white" cx="20.8462" stroke-width="2.16" r="1.98" fill="white"/>
       <circle cy="15.6024" id="connector1pad" stroke="white" cx="2.42064" stroke-width="2.16" r="1.98" fill="white"/>
       <circle cy="2.84616" id="connector2pad" stroke="white" cx="20.8462" stroke-width="2.16" r="1.98" fill="white"/>
       <circle cy="2.84616" id="connector3pad" stroke="white" cx="2.42064" stroke-width="2.16" r="1.98" fill="white"/>
      </g>
     </g>
    </g>
   </g>
  </g>
  <g partID="854177131">
   <g transform="translate(110.962,45.9469)">
    <g transform="matrix(0.374607,-0.927184,0.927184,0.374607,0,0)">
     <g id="copper1">
      <circle cy="2.88" id="connector0pin" stroke="white" cx="2.88" stroke-width="2.16" r="1.8" fill="white"/>
      <circle cy="2.88" id="connector1pin" stroke="white" cx="17.28" stroke-width="2.16" r="1.8" fill="white"/>
     </g>
    </g>
   </g>
  </g>
  <g partID="854177171">
   <g transform="translate(129.362,35.8295)">
    <g transform="matrix(-0.438371,0.898794,-0.898794,-0.438371,0,0)">
     <g id="copper1">
      <circle cy="2.88" id="connector0pin" stroke="white" cx="2.88" stroke-width="2.16" r="1.8" fill="white"/>
      <circle cy="2.88" id="connector1pin" stroke="white" cx="17.28" stroke-width="2.16" r="1.8" fill="white"/>
     </g>
    </g>
   </g>
  </g>
  <g partID="854177211">
   <g transform="translate(119.274,72.687)">
    <g transform="matrix(-0.743145,-0.669131,0.669131,-0.743145,0,0)">
     <g id="copper1">
      <circle cy="7.08448" id="connector1pin" stroke="white" cx="22.5479" stroke-width="2.13732" r="1.84465" fill="white"/>
      <circle cy="7.08661" id="connector0pin" stroke="white" cx="8.64567" stroke-width="2.13732" r="1.84252" fill="white"/>
     </g>
    </g>
   </g>
  </g>
  <g partID="497201">
   <g transform="translate(6.35112,124.996)">
    <g id="copper1">
     <g id="copper0">
      <circle cy="12.96" id="connector0pin" stroke="white" cx="39.24" stroke-width="2.16" r="4.32" fill="white"/>
      <circle cy="12.96" id="connector1pin" stroke="white" cx="21.96" stroke-width="2.16" r="4.32" fill="white"/>
      <circle cy="26.64" id="connector2pin" stroke="white" cx="30.6" stroke-width="2.16" r="4.32" fill="white"/>
     </g>
    </g>
   </g>
  </g>
 </g>
</svg>
